PathFileType	4	(X/Y/Z)	C:\Users\WrightLab\Desktop\Jo\P1_boxCal20.trc
DataRate	CameraRate	NumFrames	NumMarkers	Units	OrigDataRate	OrigDataStartFrame	OrigNumFrames
100.00	100.00	       25	19	mm	100.00	469	       937
Frame#	Time	Headset_Front			Headset_Back			Headset_Left			Headset_Right			Left_Shoulder			Right_Shoulder			Sternum			C7			Left Elbow			Right Elbow			Left Wrist			Right Wrist			Left ASIS			Right ASIS			S2			Left Knee			Right Knee			Left Ankle			Right Ankle			
		X1	Y1	Z1	X2	Y2	Z2	X3	Y3	Z3	X4	Y4	Z4	X5	Y5	Z5	X6	Y6	Z6	X7	Y7	Z7	X8	Y8	Z8	X9	Y9	Z9	X10	Y10	Z10	X11	Y11	Z11	X12	Y12	Z12	X13	Y13	Z13	X14	Y14	Z14	X15	Y15	Z15	X16	Y16	Z16	X17	Y17	Z17	X18	Y18	Z18	X19	Y19	Z19	

469	4.680				-951.19739	1513.29956	1163.73120	-966.18451	1429.91882	1017.25372				-1142.58643	1312.82349	1079.30896	-816.03925	1235.53540	1249.79712				-1033.40381	1310.97009	1261.35938	-1286.07544	1018.98462	1080.70166	-820.51355	978.92963	1370.16113	-1160.29004	919.67261	905.64209	-748.62286	757.74005	1405.79968				-909.27277	867.61816	1109.02258	-1099.05481	938.62537	1354.16016	-1198.84485	465.04132	1187.79944	-862.16650	497.24115	1113.67969							
470	4.690				-952.43970	1513.36499	1160.31262	-968.95782	1430.78308	1013.50970				-1142.68616	1311.96924	1074.99243	-815.26373	1235.93750	1246.40991				-1033.33716	1310.50647	1256.88611	-1284.18958	1017.11047	1075.40198	-819.25854	979.50574	1365.65356	-1158.64966	919.93744	899.39166	-751.76849	758.42163	1405.39746				-907.10461	867.34589	1104.08801	-1096.63757	938.06390	1349.52502	-1197.77905	464.46564	1186.08740	-861.93225	497.48300	1107.66455							
471	4.700				-953.59558	1513.51416	1156.72449	-972.50995	1432.26990	1009.45636				-1142.62012	1311.06360	1070.59119	-814.31030	1236.83813	1239.75220				-1032.93237	1309.85083	1252.19263	-1282.26111	1015.20117	1069.96887	-818.92297	980.68555	1361.55713	-1156.16089	919.77087	893.34241	-755.38806	760.42181	1405.70740				-906.27539	867.96143	1099.44189	-1093.94885	937.61896	1344.70435	-1196.58447	463.72000	1184.21277	-860.56372	497.13025	1102.69946							
472	4.710				-953.89685	1513.25439	1152.92542	-974.76050	1432.96167	1005.51465				-1142.36035	1309.97070	1066.10876	-812.95013	1237.44385	1236.99902				-1032.12463	1308.97852	1247.41626	-1279.97717	1013.22229	1064.44275	-815.61115	981.99701	1359.22852	-1153.54382	919.48645	887.16150	-757.51556	761.32043	1404.83130				-904.44757	867.97577	1093.06641	-1091.13818	937.10510	1339.82324	-1195.47131	463.60913	1181.71021	-858.87445	497.24594	1097.13049							
473	4.720				-954.89191	1513.49951	1148.99268	-976.70447	1433.56714	1001.42737				-1142.24744	1309.22827	1061.59900	-811.66302	1237.45361	1231.71814				-1031.32654	1308.16895	1242.51514	-1277.79126	1011.39459	1058.70422	-816.31201	981.73755	1351.97754	-1150.96167	919.20685	881.62268	-759.72223	763.06091	1404.28918				-902.58240	867.58740	1086.07031	-1088.12097	936.56976	1334.79639	-1194.58411	463.30173	1179.13757	-857.77502	496.22177	1091.13025							
474	4.730				-955.12500	1513.44263	1144.84692	-978.68524	1434.19141	997.32465				-1141.94824	1308.25476	1056.84338	-810.64703	1238.25073	1225.71790				-1030.56140	1307.39807	1237.46228	-1275.68628	1009.74689	1052.88159	-815.62317	982.71283	1348.16357	-1148.22131	919.07263	874.99683	-761.40271	764.44098	1402.60706				-900.69019	867.90796	1078.45178	-1085.04395	936.11865	1329.60388	-1193.35010	462.92322	1176.51501	-854.54535	496.81213	1084.53967							
475	4.740				-955.49457	1513.61694	1140.49487	-980.05914	1434.80981	992.82056				-1141.65649	1307.51147	1052.04028	-809.32269	1238.31982	1219.83545				-1029.56946	1306.58752	1232.22388	-1273.52197	1008.12317	1046.86108	-815.12817	982.78027	1343.91406	-1145.28540	918.34686	868.77014	-762.06989	765.27710	1400.76062				-899.13367	867.79114	1072.09143	-1081.76282	935.39575	1324.30701	-1192.34216	462.45316	1174.32629	-851.90808	495.00360	1078.86133							
476	4.750	-773.50787	1390.78796	1069.33008	-955.35724	1513.43799	1135.88623	-981.18823	1435.28125	988.23712				-1141.12329	1306.60144	1047.16089	-807.85223	1238.30981	1213.65479				-1028.40076	1305.61487	1226.87744	-1271.16821	1006.56030	1040.64807	-814.73010	983.28882	1337.10034	-1141.73376	917.49274	863.00482	-763.11456	766.88806	1398.59875				-896.95062	867.06873	1066.45117	-1078.39392	934.69421	1318.80298	-1191.25061	461.69077	1172.65991	-848.19751	497.10953	1071.82532							
477	4.760	-773.99347	1391.44983	1061.83105	-955.23267	1513.31152	1131.08118	-982.60815	1435.78467	983.45837				-1140.50623	1305.63440	1042.15247	-806.33142	1238.16907	1207.27869				-1026.96704	1304.48792	1221.37988	-1268.70837	1004.97571	1034.47278	-814.20178	984.27032	1332.38110	-1138.89233	917.33179	856.51636	-764.42572	768.88556	1395.59998				-895.84363	867.32794	1058.38147	-1075.06018	934.11023	1313.17224	-1190.18030	460.85748	1171.25293	-844.85400	496.43906	1065.06689							
478	4.770				-955.23785	1513.21411	1126.23865	-983.01422	1435.94531	978.56042				-1139.78711	1304.67432	1036.97363	-804.56616	1238.10156	1200.67163				-1025.28296	1303.30200	1215.69995	-1266.21069	1003.26129	1028.12915	-813.56012	984.28693	1327.69470	-1135.59290	917.05933	849.91248	-764.25696	769.23981	1392.45032				-893.93622	867.37408	1051.13379	-1071.30139	933.03101	1307.40051	-1189.04712	459.22586	1170.00586	-840.87134	497.01920	1056.16028							
479	4.780				-954.44348	1512.69592	1121.10083	-983.52405	1436.16211	973.33435				-1138.95874	1303.64185	1031.61731	-802.92487	1238.02100	1193.99854				-1023.65558	1302.09082	1209.84106	-1263.76953	1001.57648	1021.76526	-812.64807	985.36969	1322.55139	-1132.09192	916.36505	843.51685	-764.06647	769.94513	1388.40454				-891.10211	866.66553	1044.11426	-1067.66162	932.00305	1301.44604	-1187.72510	459.08420	1167.19592	-836.87347	497.21655	1048.14575							
480	4.790	-773.24573	1393.14319	1041.91663	-953.77667	1512.21936	1115.85364	-983.96283	1436.04041	967.96735				-1138.14941	1302.69104	1026.22107	-801.18799	1237.70142	1187.11682				-1022.07190	1301.04187	1203.84265	-1261.29590	999.97406	1015.17084	-812.38562	985.65906	1316.99878	-1128.67749	915.49072	837.18854	-763.54376	770.17114	1384.48145				-888.81622	866.44275	1037.04199	-1063.94019	930.98907	1295.34131	-1186.36304	459.13867	1164.00781	-833.06592	496.61420	1040.55042							
481	4.800	-772.65460	1393.32690	1033.80750	-953.15533	1511.75610	1110.40186	-984.06696	1435.96533	962.48853				-1137.01721	1301.46936	1020.50751	-799.31421	1237.52478	1180.15417				-1020.37408	1299.77307	1197.64185	-1258.51318	998.29333	1008.47064	-809.02899	987.23657	1313.54053	-1125.37378	914.88232	830.47412	-763.42487	770.78839	1379.53650				-886.75793	865.87994	1029.87720	-1059.55750	929.47083	1289.12061	-1184.73071	458.80246	1160.54395	-829.27350	494.98410	1033.06580							
482	4.810	-771.86365	1392.96790	1026.17676	-952.18384	1511.13745	1104.83191	-983.90845	1435.89685	956.88812				-1135.88428	1300.32397	1014.76727	-797.29541	1237.12317	1173.11096				-1018.57001	1298.48889	1191.31750	-1255.63489	996.58600	1001.67932	-808.91272	988.09381	1307.13171	-1121.13354	913.66418	824.05237	-762.72449	770.95972	1374.09619				-883.30481	865.34082	1021.78528	-1055.83984	928.55096	1282.75916	-1182.79358	458.26126	1157.72070	-826.10022	495.28223	1024.98083							
483	4.820	-771.17865	1393.05286	1019.28229	-951.00964	1510.24023	1098.96802	-983.56128	1435.50061	951.01306				-1134.59814	1298.90698	1008.72858	-795.34186	1236.72766	1165.85535				-1016.62964	1297.04211	1184.90796	-1252.85376	994.67249	994.74603	-806.08423	987.29175	1300.37256	-1117.54553	913.31421	817.14362	-761.38324	770.71350	1368.22534				-879.54309	865.02789	1014.25684	-1051.44824	926.98126	1276.19531	-1180.94934	457.06381	1155.79614	-822.28302	494.85138	1017.08984							
484	4.830	-769.95935	1392.58801	1011.88898	-949.61633	1509.23035	1093.04468	-983.00177	1435.00342	944.96710				-1133.13574	1297.48206	1002.61304	-793.15234	1236.28418	1158.62170				-1014.52405	1295.64087	1178.26184	-1249.90283	992.64020	987.62451	-807.59961	986.72247	1293.48645	-1113.88965	912.63538	810.00024	-759.40808	770.12036	1361.83313				-876.12854	864.54181	1004.66656	-1047.45105	925.75122	1269.60254	-1179.07227	456.25403	1152.58398	-817.68640	493.62735	1008.60272							
485	4.840	-768.85516	1392.35803	1003.75214	-948.26202	1508.25781	1086.96179	-982.35413	1434.50818	938.93207				-1131.59277	1295.98828	996.36328	-790.95276	1235.54858	1151.26233				-1012.23962	1293.97644	1171.45520	-1246.65417	990.62665	980.39227	-805.83057	986.58063	1287.09460	-1110.24963	912.10657	802.78314	-757.17175	769.29883	1354.80872				-872.48944	864.02148	996.75598	-1042.98816	924.44354	1262.69495	-1177.15710	455.07925	1147.88879	-814.47125	492.80829	999.36200							
486	4.850	-767.50470	1392.21191	996.42786	-946.91693	1507.18372	1080.72742	-981.35675	1433.67383	932.55530				-1129.78821	1294.24683	989.83710	-788.63110	1235.03015	1143.86328				-1009.84930	1292.18054	1164.54736	-1243.44458	988.60754	972.88922	-803.16602	986.60687	1279.61243	-1105.08032	909.47485	796.02039	-754.77441	768.73883	1348.15125				-869.40387	863.62378	989.57178	-1038.68030	923.13000	1255.74084	-1174.17102	455.08609	1144.06885	-810.65723	492.80133	990.96948							
487	4.860	-765.87848	1391.54309	988.13428	-945.47650	1506.10437	1074.40662	-980.30396	1433.04041	926.24432				-1127.95947	1292.50085	983.23291	-785.10199	1235.46008	1131.25037				-1007.40662	1290.46704	1157.51172	-1240.24072	986.41766	965.32794	-800.50623	985.56061	1271.13110	-1101.13806	908.89954	788.40894	-751.63434	767.51355	1340.68140				-866.39539	862.10400	980.23682	-1033.66736	921.28271	1248.50232	-1171.60596	453.94003	1141.21045	-806.93146	490.47342	982.79974							
488	4.870	-764.35840	1391.08911	982.13354	-943.77728	1504.89233	1067.98010	-978.87329	1432.05176	919.60925				-1126.02600	1290.75183	976.50269	-783.43225	1232.94312	1128.42322				-1004.64893	1288.62622	1150.32153	-1236.70593	984.05713	957.76147	-796.14740	985.93787	1265.91370	-1097.26990	908.20966	780.56189	-749.60040	767.94763	1333.18481				-862.97375	861.51068	971.70709	-1029.03162	919.86853	1241.02588	-1168.84753	452.81082	1137.39490	-802.76392	489.40024	972.84320							
489	4.880				-941.88879	1503.58459	1061.32983	-977.34888	1431.29822	913.00800				-1123.83203	1288.89148	969.57257	-780.62000	1232.18799	1120.39734				-1002.08173	1286.98535	1143.10510	-1233.03955	981.51996	949.99402	-791.60150	984.75195	1258.52795	-1093.21497	907.62030	772.68463	-744.64197	765.82751	1324.06458				-858.74194	860.51929	963.65289	-1023.76556	917.82788	1233.44153	-1165.68481	451.98273	1133.17810	-798.42255	488.31155	964.52460							
490	4.890	-760.22229	1390.10059	965.71954	-939.86664	1502.36743	1054.54382	-975.65436	1430.08276	906.03119				-1121.34583	1286.90540	962.52325	-776.54114	1232.09033	1107.88098				-999.26251	1285.18164	1135.72217	-1229.49963	979.25891	942.14667	-788.34418	983.37067	1249.58984	-1089.22437	906.80762	764.55261	-740.93695	765.17157	1315.58191				-855.07141	859.48315	955.14160	-1018.93140	916.28137	1225.67432	-1162.15491	451.13242	1128.13037	-794.49744	486.11395	954.74060							
491	4.900	-758.23309	1388.66504	958.74274	-937.35205	1501.07727	1047.56323	-973.91461	1429.17871	899.21149				-1118.90479	1285.06616	955.34631	-773.75110	1230.94653	1099.14270				-996.13367	1283.40637	1128.22131	-1225.43262	976.83551	934.12415	-783.35364	982.21198	1239.90161	-1084.18738	904.08557	756.67017	-735.83057	763.44073	1307.01306				-852.09387	857.92426	945.30151	-1013.47955	914.36365	1217.66016	-1158.74890	449.90634	1123.87231	-790.21240	483.70712	946.12128							
492	4.910	-755.85315	1388.50854	950.77917	-934.70587	1499.83801	1040.44836	-971.54260	1427.86536	892.08881				-1116.18286	1283.21753	948.08441	-769.97015	1229.74915	1090.88147				-992.87012	1281.57056	1120.62134	-1221.64392	974.63849	926.00934	-779.29169	981.44110	1231.28687	-1079.94067	903.43054	748.13763	-730.25140	761.62390	1297.10449				-848.96063	857.76392	935.95801	-1008.52472	912.76581	1209.42480	-1155.04395	448.38751	1119.76111	-786.79572	481.12473	936.96991							
493	4.920				-932.17212	1498.72742	1033.26978	-969.34216	1426.90942	885.01086				-1113.18823	1281.40271	940.67908	-766.09283	1228.61194	1084.16577				-989.16437	1279.57227	1112.90857	-1217.43506	972.43433	917.95569	-773.91736	978.87695	1221.96997	-1076.14587	902.78229	739.96686	-724.47913	760.05005	1287.17847				-844.92151	856.46136	927.97028	-1003.13013	911.07153	1200.90784	-1150.92126	447.58746	1112.81018	-782.76459	479.51407	927.66205							
